<?xml version="1.0" encoding="UTF-8" standalone="no"?>
<!-- Generator: Adobe Illustrator 22.1.0, SVG Export Plug-In . SVG Version: 6.00 Build 0)  -->

<svg
   version="1.1"
   id="Layer_1"
   x="0px"
   y="0px"
   viewBox="0 0 64 64"
   style="enable-background:new 0 0 64 64;"
   xml:space="preserve"
   sodipodi:docname="marker-icon-green.svg"
   inkscape:version="1.3.2 (091e20ef0f, 2023-11-25, custom)"
   xmlns:inkscape="http://www.inkscape.org/namespaces/inkscape"
   xmlns:sodipodi="http://sodipodi.sourceforge.net/DTD/sodipodi-0.dtd"
   xmlns="http://www.w3.org/2000/svg"
   xmlns:svg="http://www.w3.org/2000/svg"><defs
   id="defs1" /><sodipodi:namedview
   id="namedview1"
   pagecolor="#ffffff"
   bordercolor="#000000"
   borderopacity="0.25"
   inkscape:showpageshadow="2"
   inkscape:pageopacity="0.0"
   inkscape:pagecheckerboard="0"
   inkscape:deskcolor="#d1d1d1"
   inkscape:zoom="8.6354375"
   inkscape:cx="18.702005"
   inkscape:cy="29.587383"
   inkscape:window-width="1920"
   inkscape:window-height="1011"
   inkscape:window-x="0"
   inkscape:window-y="0"
   inkscape:window-maximized="1"
   inkscape:current-layer="Layer_1" />
<style
   type="text/css"
   id="style1">
	.st0{fill:#3366FF;}
</style>
<title
   id="title1" />

<circle
   style="fill:#61af1d;stroke-width:1.18799;fill-opacity:1"
   id="path2"
   cx="31.978758"
   cy="21.018675"
   r="9.540062" /><path
   class="st0"
   d="m 31.996078,2.5564343 c -10.131809,0 -18.421471,8.2896617 -18.421471,18.4214707 0,0 0,0.09211 0,0.09211 0,0.460537 0,1.013181 0.09211,1.473718 0,0.368429 0.09211,0.736859 0.09211,1.013181 0,0.09211 0,0.184214 0,0.368429 0.09211,0.36843 0.09211,0.736859 0.184215,1.105288 2.855328,14.092425 18.053041,36.474512 18.053041,36.474512 0,0 15.197713,-22.382087 17.960934,-36.474512 0.09211,-0.368429 0.09211,-0.736858 0.184214,-1.105288 0,-0.09211 0,-0.184215 0,-0.368429 0,-0.36843 0.09211,-0.736859 0.09211,-1.013181 0,-0.552644 0.09211,-1.013181 0.09211,-1.473718 C 50.417549,10.846096 42.219994,2.5564343 31.996078,2.5564343 Z m 0,27.1716687 c -4.789582,0 -8.658091,-3.868508 -8.658091,-8.658091 0,-4.789582 3.868509,-8.658091 8.658091,-8.658091 4.789582,0 8.658091,3.868509 8.658091,8.658091 0,0 0,0 0,0 0,4.789583 -3.868509,8.658091 -8.658091,8.658091 z"
   id="path1"
   style="enable-background:new 0 0 64 64;fill:#f9f9f9;stroke:#000000;stroke-width:0.242;stroke-dasharray:none;stroke-opacity:1" /></svg>
